<mxfile host="app.diagrams.net" modified="2024-01-02T07:55:28.817Z" agent="Mozilla/5.0 (Windows NT 10.0; Win64; x64) AppleWebKit/537.36 (KHTML, like Gecko) Chrome/120.0.0.0 Safari/537.36 Edg/120.0.0.0" etag="sweQJM0MaPIPVAmUpZYL" version="22.1.15" type="github">
  <diagram name="페이지-1" id="Bvkgl94_tbdnJmF64sgU">
    <mxGraphModel dx="1386" dy="759" grid="1" gridSize="10" guides="1" tooltips="1" connect="1" arrows="1" fold="1" page="1" pageScale="1" pageWidth="3300" pageHeight="4681" math="0" shadow="0">
      <root>
        <mxCell id="0" />
        <mxCell id="1" parent="0" />
        <mxCell id="wNaKUnrIgGSp3-8lSlK4-1" value="고객" style="rounded=0;whiteSpace=wrap;html=1;strokeWidth=1;" vertex="1" parent="1">
          <mxGeometry x="300" y="320" width="80" height="40" as="geometry" />
        </mxCell>
        <mxCell id="wNaKUnrIgGSp3-8lSlK4-2" value="이메일" style="ellipse;whiteSpace=wrap;html=1;strokeWidth=1;fontStyle=4" vertex="1" parent="1">
          <mxGeometry x="314" y="200" width="76" height="40" as="geometry" />
        </mxCell>
        <mxCell id="wNaKUnrIgGSp3-8lSlK4-3" value="" style="endArrow=none;html=1;rounded=0;entryX=0.5;entryY=1;entryDx=0;entryDy=0;exitX=0.5;exitY=0;exitDx=0;exitDy=0;strokeWidth=1;" edge="1" parent="1" source="wNaKUnrIgGSp3-8lSlK4-1" target="wNaKUnrIgGSp3-8lSlK4-2">
          <mxGeometry width="50" height="50" relative="1" as="geometry">
            <mxPoint x="320" y="300" as="sourcePoint" />
            <mxPoint x="370" y="250" as="targetPoint" />
          </mxGeometry>
        </mxCell>
        <mxCell id="wNaKUnrIgGSp3-8lSlK4-4" value="고객코드" style="ellipse;whiteSpace=wrap;html=1;strokeWidth=1;fontStyle=4;fontColor=#fb0909;" vertex="1" parent="1">
          <mxGeometry x="390" y="220" width="76" height="40" as="geometry" />
        </mxCell>
        <mxCell id="wNaKUnrIgGSp3-8lSlK4-5" value="" style="endArrow=none;html=1;rounded=0;entryX=0.5;entryY=1;entryDx=0;entryDy=0;exitX=0.5;exitY=0;exitDx=0;exitDy=0;strokeWidth=1;" edge="1" parent="1" target="wNaKUnrIgGSp3-8lSlK4-4" source="wNaKUnrIgGSp3-8lSlK4-1">
          <mxGeometry width="50" height="50" relative="1" as="geometry">
            <mxPoint x="350" y="330" as="sourcePoint" />
            <mxPoint x="380" y="260" as="targetPoint" />
          </mxGeometry>
        </mxCell>
        <mxCell id="wNaKUnrIgGSp3-8lSlK4-6" value="주소" style="ellipse;whiteSpace=wrap;html=1;strokeWidth=1;fontColor=#fb0909;" vertex="1" parent="1">
          <mxGeometry x="160" y="320" width="76" height="40" as="geometry" />
        </mxCell>
        <mxCell id="wNaKUnrIgGSp3-8lSlK4-7" value="" style="endArrow=none;html=1;rounded=0;entryX=1;entryY=0.5;entryDx=0;entryDy=0;exitX=0;exitY=0.5;exitDx=0;exitDy=0;strokeWidth=1;" edge="1" parent="1" target="wNaKUnrIgGSp3-8lSlK4-6" source="wNaKUnrIgGSp3-8lSlK4-1">
          <mxGeometry width="50" height="50" relative="1" as="geometry">
            <mxPoint x="360" y="340" as="sourcePoint" />
            <mxPoint x="390" y="270" as="targetPoint" />
          </mxGeometry>
        </mxCell>
        <mxCell id="wNaKUnrIgGSp3-8lSlK4-8" value="가입일" style="ellipse;whiteSpace=wrap;html=1;strokeWidth=1;" vertex="1" parent="1">
          <mxGeometry x="160" y="380" width="76" height="40" as="geometry" />
        </mxCell>
        <mxCell id="wNaKUnrIgGSp3-8lSlK4-9" value="" style="endArrow=none;html=1;rounded=0;entryX=0.5;entryY=0;entryDx=0;entryDy=0;exitX=0;exitY=0.5;exitDx=0;exitDy=0;strokeWidth=1;" edge="1" parent="1" target="wNaKUnrIgGSp3-8lSlK4-8" source="wNaKUnrIgGSp3-8lSlK4-1">
          <mxGeometry width="50" height="50" relative="1" as="geometry">
            <mxPoint x="370" y="350" as="sourcePoint" />
            <mxPoint x="400" y="280" as="targetPoint" />
          </mxGeometry>
        </mxCell>
        <mxCell id="wNaKUnrIgGSp3-8lSlK4-10" value="고객명" style="ellipse;whiteSpace=wrap;html=1;strokeWidth=1;" vertex="1" parent="1">
          <mxGeometry x="160" y="220" width="76" height="40" as="geometry" />
        </mxCell>
        <mxCell id="wNaKUnrIgGSp3-8lSlK4-11" value="" style="endArrow=none;html=1;rounded=0;entryX=0.5;entryY=1;entryDx=0;entryDy=0;exitX=0.5;exitY=0;exitDx=0;exitDy=0;strokeWidth=1;" edge="1" parent="1" target="wNaKUnrIgGSp3-8lSlK4-10" source="wNaKUnrIgGSp3-8lSlK4-1">
          <mxGeometry width="50" height="50" relative="1" as="geometry">
            <mxPoint x="380" y="360" as="sourcePoint" />
            <mxPoint x="410" y="290" as="targetPoint" />
          </mxGeometry>
        </mxCell>
        <mxCell id="wNaKUnrIgGSp3-8lSlK4-12" value="전화번호" style="ellipse;whiteSpace=wrap;html=1;strokeWidth=1;fontStyle=4" vertex="1" parent="1">
          <mxGeometry x="236" y="200" width="76" height="40" as="geometry" />
        </mxCell>
        <mxCell id="wNaKUnrIgGSp3-8lSlK4-13" value="" style="endArrow=none;html=1;rounded=0;entryX=0.5;entryY=1;entryDx=0;entryDy=0;exitX=0.5;exitY=0;exitDx=0;exitDy=0;strokeWidth=1;" edge="1" parent="1" target="wNaKUnrIgGSp3-8lSlK4-12" source="wNaKUnrIgGSp3-8lSlK4-1">
          <mxGeometry width="50" height="50" relative="1" as="geometry">
            <mxPoint x="230" y="330" as="sourcePoint" />
            <mxPoint x="260" y="260" as="targetPoint" />
          </mxGeometry>
        </mxCell>
        <mxCell id="wNaKUnrIgGSp3-8lSlK4-14" value="기본주소" style="ellipse;whiteSpace=wrap;html=1;strokeWidth=1;" vertex="1" parent="1">
          <mxGeometry x="40" y="300" width="76" height="40" as="geometry" />
        </mxCell>
        <mxCell id="wNaKUnrIgGSp3-8lSlK4-15" value="" style="endArrow=none;html=1;rounded=0;entryX=1;entryY=0.5;entryDx=0;entryDy=0;exitX=0;exitY=0.5;exitDx=0;exitDy=0;strokeWidth=1;" edge="1" parent="1" target="wNaKUnrIgGSp3-8lSlK4-14" source="wNaKUnrIgGSp3-8lSlK4-6">
          <mxGeometry width="50" height="50" relative="1" as="geometry">
            <mxPoint x="350" y="330" as="sourcePoint" />
            <mxPoint x="420" y="300" as="targetPoint" />
          </mxGeometry>
        </mxCell>
        <mxCell id="wNaKUnrIgGSp3-8lSlK4-16" value="상세주소" style="ellipse;whiteSpace=wrap;html=1;strokeWidth=1;" vertex="1" parent="1">
          <mxGeometry x="40" y="350" width="76" height="40" as="geometry" />
        </mxCell>
        <mxCell id="wNaKUnrIgGSp3-8lSlK4-17" value="" style="endArrow=none;html=1;rounded=0;entryX=1;entryY=0.5;entryDx=0;entryDy=0;exitX=0;exitY=0.5;exitDx=0;exitDy=0;strokeWidth=1;" edge="1" parent="1" target="wNaKUnrIgGSp3-8lSlK4-16" source="wNaKUnrIgGSp3-8lSlK4-6">
          <mxGeometry width="50" height="50" relative="1" as="geometry">
            <mxPoint x="220" y="450" as="sourcePoint" />
            <mxPoint x="290" y="420" as="targetPoint" />
          </mxGeometry>
        </mxCell>
        <mxCell id="wNaKUnrIgGSp3-8lSlK4-18" value="고객" style="rounded=0;whiteSpace=wrap;html=1;strokeWidth=1;" vertex="1" parent="1">
          <mxGeometry x="620" y="320" width="80" height="40" as="geometry" />
        </mxCell>
        <mxCell id="wNaKUnrIgGSp3-8lSlK4-19" value="제품구분" style="ellipse;whiteSpace=wrap;html=1;strokeWidth=1;" vertex="1" parent="1">
          <mxGeometry x="724" y="220" width="76" height="40" as="geometry" />
        </mxCell>
        <mxCell id="wNaKUnrIgGSp3-8lSlK4-20" value="" style="endArrow=none;html=1;rounded=0;entryX=0.5;entryY=1;entryDx=0;entryDy=0;exitX=0.5;exitY=0;exitDx=0;exitDy=0;strokeWidth=1;" edge="1" parent="1" source="wNaKUnrIgGSp3-8lSlK4-18" target="wNaKUnrIgGSp3-8lSlK4-19">
          <mxGeometry width="50" height="50" relative="1" as="geometry">
            <mxPoint x="640" y="300" as="sourcePoint" />
            <mxPoint x="690" y="250" as="targetPoint" />
          </mxGeometry>
        </mxCell>
        <mxCell id="wNaKUnrIgGSp3-8lSlK4-22" value="" style="endArrow=none;html=1;rounded=0;entryX=0.04;entryY=0.8;entryDx=0;entryDy=0;exitX=1;exitY=0.5;exitDx=0;exitDy=0;strokeWidth=1;entryPerimeter=0;" edge="1" parent="1" source="wNaKUnrIgGSp3-8lSlK4-18" target="wNaKUnrIgGSp3-8lSlK4-31">
          <mxGeometry width="50" height="50" relative="1" as="geometry">
            <mxPoint x="670" y="330" as="sourcePoint" />
            <mxPoint x="838" y="290" as="targetPoint" />
          </mxGeometry>
        </mxCell>
        <mxCell id="wNaKUnrIgGSp3-8lSlK4-23" value="가격" style="ellipse;whiteSpace=wrap;html=1;strokeWidth=1;" vertex="1" parent="1">
          <mxGeometry x="840" y="310" width="76" height="40" as="geometry" />
        </mxCell>
        <mxCell id="wNaKUnrIgGSp3-8lSlK4-24" value="" style="endArrow=none;html=1;rounded=0;entryX=0;entryY=0.5;entryDx=0;entryDy=0;strokeWidth=1;" edge="1" parent="1" target="wNaKUnrIgGSp3-8lSlK4-23">
          <mxGeometry width="50" height="50" relative="1" as="geometry">
            <mxPoint x="700" y="340" as="sourcePoint" />
            <mxPoint x="710" y="270" as="targetPoint" />
          </mxGeometry>
        </mxCell>
        <mxCell id="wNaKUnrIgGSp3-8lSlK4-27" value="제품코드" style="ellipse;whiteSpace=wrap;html=1;strokeWidth=1;fontStyle=4;fontColor=#FF0000;" vertex="1" parent="1">
          <mxGeometry x="564" y="220" width="76" height="40" as="geometry" />
        </mxCell>
        <mxCell id="wNaKUnrIgGSp3-8lSlK4-28" value="" style="endArrow=none;html=1;rounded=0;entryX=0.5;entryY=1;entryDx=0;entryDy=0;exitX=0.5;exitY=0;exitDx=0;exitDy=0;strokeWidth=1;" edge="1" parent="1" source="wNaKUnrIgGSp3-8lSlK4-18" target="wNaKUnrIgGSp3-8lSlK4-27">
          <mxGeometry width="50" height="50" relative="1" as="geometry">
            <mxPoint x="700" y="360" as="sourcePoint" />
            <mxPoint x="730" y="290" as="targetPoint" />
          </mxGeometry>
        </mxCell>
        <mxCell id="wNaKUnrIgGSp3-8lSlK4-29" value="제품명" style="ellipse;whiteSpace=wrap;html=1;strokeWidth=1;" vertex="1" parent="1">
          <mxGeometry x="640" y="210" width="76" height="40" as="geometry" />
        </mxCell>
        <mxCell id="wNaKUnrIgGSp3-8lSlK4-30" value="" style="endArrow=none;html=1;rounded=0;entryX=0.5;entryY=1;entryDx=0;entryDy=0;exitX=0.5;exitY=0;exitDx=0;exitDy=0;strokeWidth=1;" edge="1" parent="1" source="wNaKUnrIgGSp3-8lSlK4-18" target="wNaKUnrIgGSp3-8lSlK4-29">
          <mxGeometry width="50" height="50" relative="1" as="geometry">
            <mxPoint x="550" y="330" as="sourcePoint" />
            <mxPoint x="580" y="260" as="targetPoint" />
          </mxGeometry>
        </mxCell>
        <mxCell id="wNaKUnrIgGSp3-8lSlK4-31" value="제품색상" style="ellipse;shape=doubleEllipse;whiteSpace=wrap;html=1;fontColor=#FF0000;" vertex="1" parent="1">
          <mxGeometry x="816" y="240" width="84" height="50" as="geometry" />
        </mxCell>
        <mxCell id="wNaKUnrIgGSp3-8lSlK4-32" value="구매" style="html=1;whiteSpace=wrap;aspect=fixed;shape=isoRectangle;" vertex="1" parent="1">
          <mxGeometry x="466" y="325" width="91.67" height="55" as="geometry" />
        </mxCell>
        <mxCell id="wNaKUnrIgGSp3-8lSlK4-34" value="" style="endArrow=none;html=1;rounded=0;exitX=0.971;exitY=0.527;exitDx=0;exitDy=0;exitPerimeter=0;entryX=0;entryY=0.5;entryDx=0;entryDy=0;" edge="1" parent="1" source="wNaKUnrIgGSp3-8lSlK4-32" target="wNaKUnrIgGSp3-8lSlK4-18">
          <mxGeometry width="50" height="50" relative="1" as="geometry">
            <mxPoint x="570" y="420" as="sourcePoint" />
            <mxPoint x="620" y="370" as="targetPoint" />
          </mxGeometry>
        </mxCell>
        <mxCell id="wNaKUnrIgGSp3-8lSlK4-35" value="" style="endArrow=none;html=1;rounded=0;exitX=1;exitY=0.5;exitDx=0;exitDy=0;" edge="1" parent="1" source="wNaKUnrIgGSp3-8lSlK4-1">
          <mxGeometry width="50" height="50" relative="1" as="geometry">
            <mxPoint x="380" y="345" as="sourcePoint" />
            <mxPoint x="470" y="353" as="targetPoint" />
          </mxGeometry>
        </mxCell>
        <mxCell id="wNaKUnrIgGSp3-8lSlK4-40" value="구매일자" style="ellipse;whiteSpace=wrap;html=1;strokeWidth=1;" vertex="1" parent="1">
          <mxGeometry x="540" y="420" width="76" height="40" as="geometry" />
        </mxCell>
        <mxCell id="wNaKUnrIgGSp3-8lSlK4-41" value="수량" style="ellipse;whiteSpace=wrap;html=1;strokeWidth=1;" vertex="1" parent="1">
          <mxGeometry x="420" y="430" width="76" height="40" as="geometry" />
        </mxCell>
        <mxCell id="wNaKUnrIgGSp3-8lSlK4-42" value="" style="endArrow=none;html=1;rounded=0;entryX=0.491;entryY=1;entryDx=0;entryDy=0;entryPerimeter=0;" edge="1" parent="1" source="wNaKUnrIgGSp3-8lSlK4-40" target="wNaKUnrIgGSp3-8lSlK4-32">
          <mxGeometry width="50" height="50" relative="1" as="geometry">
            <mxPoint x="570" y="420" as="sourcePoint" />
            <mxPoint x="620" y="370" as="targetPoint" />
          </mxGeometry>
        </mxCell>
        <mxCell id="wNaKUnrIgGSp3-8lSlK4-43" value="" style="endArrow=none;html=1;rounded=0;entryX=0.502;entryY=0.982;entryDx=0;entryDy=0;entryPerimeter=0;" edge="1" parent="1" source="wNaKUnrIgGSp3-8lSlK4-41" target="wNaKUnrIgGSp3-8lSlK4-32">
          <mxGeometry width="50" height="50" relative="1" as="geometry">
            <mxPoint x="570" y="420" as="sourcePoint" />
            <mxPoint x="620" y="370" as="targetPoint" />
          </mxGeometry>
        </mxCell>
        <mxCell id="wNaKUnrIgGSp3-8lSlK4-45" value="" style="endArrow=none;html=1;rounded=0;entryX=0.5;entryY=1;entryDx=0;entryDy=0;exitX=0.5;exitY=0;exitDx=0;exitDy=0;" edge="1" parent="1" source="wNaKUnrIgGSp3-8lSlK4-46" target="wNaKUnrIgGSp3-8lSlK4-1">
          <mxGeometry width="50" height="50" relative="1" as="geometry">
            <mxPoint x="340" y="440" as="sourcePoint" />
            <mxPoint x="620" y="370" as="targetPoint" />
          </mxGeometry>
        </mxCell>
        <mxCell id="wNaKUnrIgGSp3-8lSlK4-46" value="관리" style="rhombus;whiteSpace=wrap;html=1;" vertex="1" parent="1">
          <mxGeometry x="285" y="440" width="105" height="60" as="geometry" />
        </mxCell>
        <mxCell id="wNaKUnrIgGSp3-8lSlK4-48" value="" style="endArrow=none;html=1;rounded=0;entryX=0.5;entryY=1;entryDx=0;entryDy=0;exitX=0.5;exitY=0;exitDx=0;exitDy=0;" edge="1" parent="1" source="wNaKUnrIgGSp3-8lSlK4-51" target="wNaKUnrIgGSp3-8lSlK4-46">
          <mxGeometry width="50" height="50" relative="1" as="geometry">
            <mxPoint x="338" y="560" as="sourcePoint" />
            <mxPoint x="335" y="500" as="targetPoint" />
          </mxGeometry>
        </mxCell>
        <mxCell id="wNaKUnrIgGSp3-8lSlK4-51" value="지역" style="rounded=0;whiteSpace=wrap;html=1;" vertex="1" parent="1">
          <mxGeometry x="280" y="570" width="110" height="40" as="geometry" />
        </mxCell>
        <mxCell id="wNaKUnrIgGSp3-8lSlK4-52" value="지역명" style="ellipse;whiteSpace=wrap;html=1;strokeWidth=1;" vertex="1" parent="1">
          <mxGeometry x="100" y="550" width="76" height="40" as="geometry" />
        </mxCell>
        <mxCell id="wNaKUnrIgGSp3-8lSlK4-53" value="" style="endArrow=none;html=1;rounded=0;entryX=1;entryY=0.5;entryDx=0;entryDy=0;strokeWidth=1;" edge="1" parent="1" target="wNaKUnrIgGSp3-8lSlK4-52">
          <mxGeometry width="50" height="50" relative="1" as="geometry">
            <mxPoint x="280" y="590" as="sourcePoint" />
            <mxPoint x="410" y="290" as="targetPoint" />
          </mxGeometry>
        </mxCell>
        <mxCell id="wNaKUnrIgGSp3-8lSlK4-54" value="지역코드" style="ellipse;whiteSpace=wrap;html=1;strokeWidth=1;fontStyle=4;fontColor=#fb0909;" vertex="1" parent="1">
          <mxGeometry x="100" y="600" width="76" height="40" as="geometry" />
        </mxCell>
        <mxCell id="wNaKUnrIgGSp3-8lSlK4-55" value="" style="endArrow=none;html=1;rounded=0;exitX=0;exitY=0.5;exitDx=0;exitDy=0;strokeWidth=1;entryX=1;entryY=0.5;entryDx=0;entryDy=0;" edge="1" parent="1" target="wNaKUnrIgGSp3-8lSlK4-54" source="wNaKUnrIgGSp3-8lSlK4-51">
          <mxGeometry width="50" height="50" relative="1" as="geometry">
            <mxPoint x="285" y="590" as="sourcePoint" />
            <mxPoint x="190" y="630" as="targetPoint" />
          </mxGeometry>
        </mxCell>
        <mxCell id="wNaKUnrIgGSp3-8lSlK4-57" value="N" style="text;html=1;align=center;verticalAlign=middle;resizable=0;points=[];autosize=1;strokeColor=none;fillColor=none;" vertex="1" parent="1">
          <mxGeometry x="337" y="410" width="30" height="30" as="geometry" />
        </mxCell>
        <mxCell id="wNaKUnrIgGSp3-8lSlK4-58" value="1" style="text;html=1;align=center;verticalAlign=middle;resizable=0;points=[];autosize=1;strokeColor=none;fillColor=none;" vertex="1" parent="1">
          <mxGeometry x="337" y="500" width="30" height="30" as="geometry" />
        </mxCell>
        <mxCell id="wNaKUnrIgGSp3-8lSlK4-59" value="M" style="text;html=1;align=center;verticalAlign=middle;resizable=0;points=[];autosize=1;strokeColor=none;fillColor=none;" vertex="1" parent="1">
          <mxGeometry x="443" y="315" width="30" height="30" as="geometry" />
        </mxCell>
        <mxCell id="wNaKUnrIgGSp3-8lSlK4-60" value="N" style="text;html=1;align=center;verticalAlign=middle;resizable=0;points=[];autosize=1;strokeColor=none;fillColor=none;" vertex="1" parent="1">
          <mxGeometry x="555" y="318" width="30" height="30" as="geometry" />
        </mxCell>
      </root>
    </mxGraphModel>
  </diagram>
</mxfile>
